<svg width="44" height="44" viewBox="0 0 44 44" fill="none" xmlns="http://www.w3.org/2000/svg">
<rect width="44" height="44" fill="url(#paint0_linear)"/>
<rect x="9.14648" y="6.875" width="25.7074" height="2.99504" fill="white"/>
<rect x="33.1065" y="6.875" width="25.957" height="3.24462" transform="rotate(90 33.1065 6.875)" fill="white"/>
<rect x="25.1197" y="6.875" width="9.48428" height="3.24462" transform="rotate(90 25.1197 6.875)" fill="white"/>
<rect x="23.123" y="16.3594" width="8.48593" height="3.24462" transform="rotate(-180 23.123 16.3594)" fill="white"/>
<path fill-rule="evenodd" clip-rule="evenodd" d="M19.138 19.3545C18.5111 21.2396 16.7329 22.599 14.6372 22.599C12.0182 22.599 9.89504 20.4759 9.89504 17.8569C9.89504 15.2379 12.0182 13.1147 14.6372 13.1147C16.7329 13.1147 18.5111 14.4742 19.138 16.3594L14.6449 16.3594C14.6423 16.3594 14.6396 16.3594 14.637 16.3594C13.8099 16.3594 13.1395 17.0299 13.1395 17.8569C13.1395 18.684 13.8099 19.3544 14.637 19.3544C14.637 19.3544 14.637 19.3544 14.637 19.3544V19.3545L19.138 19.3545Z" fill="white"/>
<path d="M20.8768 31.3345L20.0033 28.589C21.9695 27.8752 23.2479 27.0915 23.2479 25.3444C23.2479 23.5973 21.2512 22.0381 18.7553 21.975C14.6711 21.8717 11.9095 24.346 12.2661 26.8419C12.6405 29.4626 15.2674 31.8421 19.2545 35.0783L16.8835 37.0749C12.0165 33.3312 9.14623 30.2113 9.14627 26.0932C9.1463 22.9733 11.3926 19.1047 18.7553 19.1047C22.6341 19.1047 26.3677 21.4736 26.3677 24.97C26.3677 27.965 24.5272 30.7119 20.8768 31.3345Z" fill="white"/>
<defs>
<linearGradient id="paint0_linear" x1="0" y1="22" x2="44" y2="22" gradientUnits="userSpaceOnUse">
<stop stop-color="#8E2DE2"/>
<stop offset="1" stop-color="#4A00E0"/>
</linearGradient>
</defs>
</svg>
